<svg viewBox="0 0 40 48" fill="none" xmlns="http://www.w3.org/2000/svg">
  <path d="M6 1 C10 4, 15 8, 18 12 C19 14, 20 16, 20 18" stroke="#e8944d" stroke-width="1.4" stroke-linecap="round" fill="none"/>
  <path d="M10 5 C6 2, 2 4, 3 8 C4 12, 9 10, 10 5Z" stroke="#e8944d" stroke-width="0.9" fill="#e8944d" fill-opacity="0.08"/>
  <path d="M10 5 C7 6, 4 7, 3 8" stroke="#e8944d" stroke-width="0.5" fill="none"/>
  <path d="M8 5.5 C6.5 6.5, 5 7.5, 4.5 9" stroke="#e8944d" stroke-width="0.3" fill="none"/>
  <path d="M9 6.5 C8 7, 6.5 8, 5.5 10" stroke="#e8944d" stroke-width="0.3" fill="none"/>
  <path d="M15 8 C18 4, 23 4, 22 9 C21 13, 16 11, 15 8Z" stroke="#e8944d" stroke-width="0.9" fill="#e8944d" fill-opacity="0.08"/>
  <path d="M15 8 C18 8, 21 7, 22 9" stroke="#e8944d" stroke-width="0.5" fill="none"/>
  <path d="M17 7.5 C18.5 8, 20 8.5, 21 9.5" stroke="#e8944d" stroke-width="0.3" fill="none"/>
  <path d="M16 9 C17.5 9, 19.5 9, 20.5 10" stroke="#e8944d" stroke-width="0.3" fill="none"/>
  <path d="M23 14 C26 12, 28 14, 26 17 C24 19, 22 16, 23 14Z" stroke="#e8944d" stroke-width="0.8" fill="#e8944d" fill-opacity="0.08"/>
  <path d="M23 14 C25 14, 27 14.5, 26 17" stroke="#e8944d" stroke-width="0.4" fill="none"/>
  <circle cx="20" cy="30" r="11.5" stroke="#e8944d" stroke-width="1.2" fill="none"/>
  <path d="M20 18 L20 18.5" stroke="#e8944d" stroke-width="1.3" stroke-linecap="round"/>
  <path d="M18 19.5 L20 18.5 L22 19.5" stroke="#e8944d" stroke-width="0.6" fill="none" stroke-linecap="round"/>
  <path d="M20 18.5 C18 25, 13 32, 11 39" stroke="#e8944d" stroke-width="0.35" opacity="0.4" fill="none"/>
  <path d="M20 18.5 C22 25, 27 32, 29 39" stroke="#e8944d" stroke-width="0.35" opacity="0.4" fill="none"/>
  <path d="M20 18.5 C20 26, 20 34, 20 41.5" stroke="#e8944d" stroke-width="0.35" opacity="0.4" fill="none"/>
</svg>
